<svg width="225" height="134" viewBox="0 0 225 134" fill="none" xmlns="http://www.w3.org/2000/svg">
<path d="M89.0015 18.8138H45.3711V103.628H89.0015V18.8138Z" fill="#E6E6E6"/>
<path d="M81.0689 18.8138H45.3711V103.628H81.0689V18.8138Z" fill="#EBEBEB"/>
<path d="M89.5144 18.8138H44.4325V20.1978H89.5144V18.8138Z" fill="#E0E0E0"/>
<path d="M89.5144 16.0454H44.4325V17.4293H89.5144V16.0454Z" fill="#E0E0E0"/>
<path d="M88.5671 17.4298H45.3711V18.8137H88.5671V17.4298Z" fill="#EBEBEB"/>
<path d="M55.465 23.8068H48.7599V30.4858H55.465V23.8068Z" fill="#E6E6E6"/>
<path d="M55.465 23.8068H49.351V30.4858H55.465V23.8068Z" fill="#F5F5F5"/>
<path d="M65.6181 23.8068H58.9129V30.4858H65.6181V23.8068Z" fill="#E6E6E6"/>
<path d="M65.6181 23.8068H59.504V30.4858H65.6181V23.8068Z" fill="#F5F5F5"/>
<path d="M75.7716 23.8068H69.0665V30.4858H75.7716V23.8068Z" fill="#E6E6E6"/>
<path d="M75.7716 23.8068H69.6576V30.4858H75.7716V23.8068Z" fill="#F5F5F5"/>
<path d="M55.465 33.6414H48.7599V40.3204H55.465V33.6414Z" fill="#E6E6E6"/>
<path d="M55.465 33.6414H49.351V40.3204H55.465V33.6414Z" fill="#F5F5F5"/>
<path d="M65.6181 33.6414H58.9129V40.3204H65.6181V33.6414Z" fill="#E6E6E6"/>
<path d="M65.6181 33.6414H59.504V40.3204H65.6181V33.6414Z" fill="#F5F5F5"/>
<path d="M75.7716 33.6414H69.0665V40.3204H75.7716V33.6414Z" fill="#E6E6E6"/>
<path d="M75.7716 33.6414H69.6576V40.3204H75.7716V33.6414Z" fill="#F5F5F5"/>
<path d="M55.465 51.652H48.7599V58.331H55.465V51.652Z" fill="#E6E6E6"/>
<path d="M55.465 51.652H49.351V58.331H55.465V51.652Z" fill="#F5F5F5"/>
<path d="M65.6181 51.652H58.9129V58.331H65.6181V51.652Z" fill="#E6E6E6"/>
<path d="M65.6181 51.652H59.504V58.331H65.6181V51.652Z" fill="#F5F5F5"/>
<path d="M75.7716 51.652H69.0665V58.331H75.7716V51.652Z" fill="#E6E6E6"/>
<path d="M75.7716 51.652H69.6576V58.331H75.7716V51.652Z" fill="#F5F5F5"/>
<path d="M55.465 61.4865H48.7599V68.1655H55.465V61.4865Z" fill="#E6E6E6"/>
<path d="M55.465 61.4865H49.351V68.1655H55.465V61.4865Z" fill="#F5F5F5"/>
<path d="M65.6181 61.4865H58.9129V68.1655H65.6181V61.4865Z" fill="#E6E6E6"/>
<path d="M65.6181 61.4865H59.504V68.1655H65.6181V61.4865Z" fill="#F5F5F5"/>
<path d="M75.7716 61.4865H69.0665V68.1655H75.7716V61.4865Z" fill="#E6E6E6"/>
<path d="M75.7716 61.4865H69.6576V68.1655H75.7716V61.4865Z" fill="#F5F5F5"/>
<path d="M55.465 81.5016H48.7599V88.1806H55.465V81.5016Z" fill="#E6E6E6"/>
<path d="M55.465 81.5016H49.351V88.1806H55.465V81.5016Z" fill="#F5F5F5"/>
<path d="M65.6181 81.5016H58.9129V88.1806H65.6181V81.5016Z" fill="#E6E6E6"/>
<path d="M65.6181 81.5016H59.504V88.1806H65.6181V81.5016Z" fill="#F5F5F5"/>
<path d="M75.7716 81.5016H69.0665V88.1806H75.7716V81.5016Z" fill="#E6E6E6"/>
<path d="M75.7716 81.5016H69.6576V88.1806H75.7716V81.5016Z" fill="#F5F5F5"/>
<path d="M55.465 91.3361H48.7599V98.0151H55.465V91.3361Z" fill="#E6E6E6"/>
<path d="M55.465 91.3361H49.351V98.0151H55.465V91.3361Z" fill="#F5F5F5"/>
<path d="M65.6181 91.3361H58.9129V98.0151H65.6181V91.3361Z" fill="#E6E6E6"/>
<path d="M65.6181 91.3361H59.504V98.0151H65.6181V91.3361Z" fill="#F5F5F5"/>
<path d="M75.7716 91.3361H69.0665V98.0151H75.7716V91.3361Z" fill="#E6E6E6"/>
<path d="M75.7716 91.3361H69.6576V98.0151H75.7716V91.3361Z" fill="#F5F5F5"/>
<path d="M89.0015 45.017H45.3711V45.635H89.0015V45.017Z" fill="#E0E0E0"/>
<path d="M89.0015 75.8014H45.3711V76.4194H89.0015V75.8014Z" fill="#E0E0E0"/>
<path d="M38.0034 44.2106H7.82698V117.353H38.0034V44.2106Z" fill="#E0E0E0"/>
<path d="M29.4088 44.2106H7.82698V117.353H29.4088V44.2106Z" fill="#EBEBEB"/>
<path d="M18.0833 50.2214H10.0516V54.1055H18.0833V50.2214Z" fill="#E6E6E6"/>
<path d="M18.0828 50.2214H10.5861V54.1055H18.0828V50.2214Z" fill="#F5F5F5"/>
<path d="M27.3729 50.2214H19.3416V54.1055H27.3729V50.2214Z" fill="#E6E6E6"/>
<path d="M27.3729 50.2214H19.8762V54.1055H27.3729V50.2214Z" fill="#F5F5F5"/>
<path d="M18.0833 57.5323H10.0516V61.4164H18.0833V57.5323Z" fill="#E6E6E6"/>
<path d="M18.0828 57.5323H10.5861V61.4164H18.0828V57.5323Z" fill="#F5F5F5"/>
<path d="M27.3729 57.5323H19.3416V61.4164H27.3729V57.5323Z" fill="#E6E6E6"/>
<path d="M27.3729 57.5323H19.8762V61.4164H27.3729V57.5323Z" fill="#F5F5F5"/>
<path d="M18.0833 66.8748H10.0516V70.7588H18.0833V66.8748Z" fill="#E6E6E6"/>
<path d="M18.0828 66.8748H10.5861V70.7588H18.0828V66.8748Z" fill="#F5F5F5"/>
<path d="M27.3729 66.8748H19.3416V70.7588H27.3729V66.8748Z" fill="#E6E6E6"/>
<path d="M27.3729 66.8748H19.8762V70.7588H27.3729V66.8748Z" fill="#F5F5F5"/>
<path d="M18.0833 72.2437H10.0516V76.1277H18.0833V72.2437Z" fill="#E6E6E6"/>
<path d="M18.0828 72.2437H10.5861V76.1277H18.0828V72.2437Z" fill="#F5F5F5"/>
<path d="M27.3729 72.2437H19.3416V76.1277H27.3729V72.2437Z" fill="#E6E6E6"/>
<path d="M27.3729 72.2437H19.8762V76.1277H27.3729V72.2437Z" fill="#F5F5F5"/>
<path d="M18.0833 81.0629H10.0516V84.9469H18.0833V81.0629Z" fill="#E6E6E6"/>
<path d="M18.0828 81.0629H10.5861V84.9469H18.0828V81.0629Z" fill="#F5F5F5"/>
<path d="M27.3729 81.0629H19.3416V84.9469H27.3729V81.0629Z" fill="#E6E6E6"/>
<path d="M27.3729 81.0629H19.8762V84.9469H27.3729V81.0629Z" fill="#F5F5F5"/>
<path d="M18.0833 86.4312H10.0516V90.3147H18.0833V86.4312Z" fill="#E6E6E6"/>
<path d="M18.0828 86.4312H10.5861V90.3147H18.0828V86.4312Z" fill="#F5F5F5"/>
<path d="M27.3729 86.4312H19.3416V90.3147H27.3729V86.4312Z" fill="#E6E6E6"/>
<path d="M27.3729 86.4312H19.8762V90.3147H27.3729V86.4312Z" fill="#F5F5F5"/>
<path d="M18.0833 96.0291H10.0516V99.9131H18.0833V96.0291Z" fill="#E6E6E6"/>
<path d="M18.0828 96.0291H10.5861V99.9131H18.0828V96.0291Z" fill="#F5F5F5"/>
<path d="M27.3729 96.0291H19.3416V99.9131H27.3729V96.0291Z" fill="#E6E6E6"/>
<path d="M27.3729 96.0291H19.8762V99.9131H27.3729V96.0291Z" fill="#F5F5F5"/>
<path d="M18.0833 103.119H10.0516V107.003H18.0833V103.119Z" fill="#E6E6E6"/>
<path d="M18.0828 103.119H10.5861V107.003H18.0828V103.119Z" fill="#F5F5F5"/>
<path d="M27.3729 103.119H19.3416V107.003H27.3729V103.119Z" fill="#E6E6E6"/>
<path d="M27.3729 103.119H19.8762V107.003H27.3729V103.119Z" fill="#F5F5F5"/>
<path opacity="0.05" d="M38.0034 63.8115H7.82698V64.4797H38.0034V63.8115Z" fill="#333333"/>
<path opacity="0.05" d="M38.0034 78.2611H7.82698V78.9293H38.0034V78.2611Z" fill="#333333"/>
<path opacity="0.05" d="M38.0034 92.8383H7.82698V93.5064H38.0034V92.8383Z" fill="#333333"/>
<path d="M38.0034 42.0469H6.40578V44.3831H38.0034V42.0469Z" fill="#E0E0E0"/>
<path opacity="0.05" d="M38.0039 42.0469H30.7833V44.3831H38.0039V42.0469Z" fill="#333333"/>
<path d="M142.467 6.11365H107.032V97.8487H142.467V6.11365Z" fill="#E6E6E6"/>
<path d="M129.351 6.11316H93.9138V97.8487H129.351V6.11316Z" fill="#EBEBEB"/>
<path d="M126.259 12.3417H97.006V17.0142H126.259V12.3417Z" fill="#E6E6E6"/>
<path d="M126.259 12.3417H98.1414V17.0142H126.259V12.3417Z" fill="#F5F5F5"/>
<path d="M126.259 20.2059H97.006V24.8784H126.259V20.2059Z" fill="#E6E6E6"/>
<path d="M126.259 20.2059H98.1414V24.8784H126.259V20.2059Z" fill="#F5F5F5"/>
<path d="M126.259 28.3806H97.006V33.0531H126.259V28.3806Z" fill="#E6E6E6"/>
<path d="M126.259 28.3806H98.1414V33.0531H126.259V28.3806Z" fill="#F5F5F5"/>
<path d="M126.259 36.5552H97.006V41.2277H126.259V36.5552Z" fill="#E6E6E6"/>
<path d="M126.259 36.5552H98.1414V41.2277H126.259V36.5552Z" fill="#F5F5F5"/>
<path d="M126.259 44.7297H97.006V49.4023H126.259V44.7297Z" fill="#E6E6E6"/>
<path d="M126.259 44.7297H98.1414V49.4023H126.259V44.7297Z" fill="#F5F5F5"/>
<path d="M126.259 52.9043H97.006V57.5768H126.259V52.9043Z" fill="#E6E6E6"/>
<path d="M126.259 52.9043H98.1414V57.5768H126.259V52.9043Z" fill="#F5F5F5"/>
<path d="M126.259 61.913H97.006V66.5855H126.259V61.913Z" fill="#E6E6E6"/>
<path d="M126.259 61.913H98.1414V66.5855H126.259V61.913Z" fill="#F5F5F5"/>
<path d="M126.259 70.9221H97.006V75.5946H126.259V70.9221Z" fill="#E6E6E6"/>
<path d="M126.259 70.9221H98.1414V75.5946H126.259V70.9221Z" fill="#F5F5F5"/>
<path d="M126.259 79.9308H97.006V84.6033H126.259V79.9308Z" fill="#E6E6E6"/>
<path d="M126.259 79.9308H98.1414V84.6033H126.259V79.9308Z" fill="#F5F5F5"/>
<path d="M126.259 88.9399H97.006V93.6125H126.259V88.9399Z" fill="#E6E6E6"/>
<path d="M126.259 88.9399H98.1414V93.6125H126.259V88.9399Z" fill="#F5F5F5"/>
<path d="M143.386 5.19006H92.9115V7.42852H143.386V5.19006Z" fill="#E0E0E0"/>
<path d="M143.386 1.15137H92.9115V3.38983H143.386V1.15137Z" fill="#E0E0E0"/>
<path d="M141.71 2.95154H93.9138V5.19H141.71V2.95154Z" fill="#EBEBEB"/>
<path d="M142.467 12.3396H132.593V17.0142H142.467V12.3396Z" fill="#E0E0E0"/>
<path d="M142.467 20.0309H132.593V24.7054H142.467V20.0309Z" fill="#E0E0E0"/>
<path d="M142.467 27.7227H132.593V32.3972H142.467V27.7227Z" fill="#E0E0E0"/>
<path d="M142.467 36.5541H132.593V41.2286H142.467V36.5541Z" fill="#E0E0E0"/>
<path d="M142.467 44.7288H132.593V49.4033H142.467V44.7288Z" fill="#E0E0E0"/>
<path d="M142.467 52.9033H132.593V57.5779H142.467V52.9033Z" fill="#E0E0E0"/>
<path d="M142.467 61.912H132.593V66.5866H142.467V61.912Z" fill="#E0E0E0"/>
<path d="M142.467 70.9211H132.593V75.5957H142.467V70.9211Z" fill="#E0E0E0"/>
<path d="M142.467 79.9303H132.593V84.6049H142.467V79.9303Z" fill="#E0E0E0"/>
<path d="M142.467 88.9388H132.593V93.6134H142.467V88.9388Z" fill="#E0E0E0"/>
<path d="M222.673 76.4773H219.83V80.9061H222.673V76.4773Z" fill="#E0E0E0"/>
<path d="M222.673 83.7252H219.83V88.154H222.673V83.7252Z" fill="#E0E0E0"/>
<path d="M222.673 90.7682H219.83V95.197H222.673V90.7682Z" fill="#E0E0E0"/>
<path d="M222.673 98.2168H219.83V102.646H222.673V98.2168Z" fill="#E0E0E0"/>
<path d="M222.673 105.463H219.83V109.892H222.673V105.463Z" fill="#E0E0E0"/>
<path d="M222.673 72.0282H192.773V117.325H222.673V72.0282Z" fill="#E6E6E6"/>
<path d="M217.622 72.0265H192.775V117.324H217.622V72.0265Z" fill="#EBEBEB"/>
<path d="M215.216 76.4794H195.01V80.9077H215.216V76.4794Z" fill="#EBEBEB"/>
<path d="M215.216 83.7252H195.01V88.1535H215.216V83.7252Z" fill="#EBEBEB"/>
<path d="M215.216 90.9716H195.01V95.3999H215.216V90.9716Z" fill="#EBEBEB"/>
<path d="M215.216 98.2173H195.01V102.646H215.216V98.2173Z" fill="#EBEBEB"/>
<path d="M215.216 105.463H195.01V109.891H215.216V105.463Z" fill="#EBEBEB"/>
<path d="M215.216 76.4794H195.755V80.9077H215.216V76.4794Z" fill="#F5F5F5"/>
<path d="M215.216 83.7252H195.755V88.1535H215.216V83.7252Z" fill="#F5F5F5"/>
<path d="M215.216 90.9716H195.755V95.3999H215.216V90.9716Z" fill="#F5F5F5"/>
<path d="M215.216 98.2174H195.755V102.646H215.216V98.2174Z" fill="#F5F5F5"/>
<path d="M215.216 105.463H195.755V109.891H215.216V105.463Z" fill="#F5F5F5"/>
<path d="M96.2057 33.8937H45.3037V132.843H96.2057V33.8937Z" fill="#4379F2"/>
<path opacity="0.4" d="M86.9511 33.8937H45.3037V132.843H86.9511V33.8937Z" fill="white"/>
<path d="M96.8045 33.8932H44.2079V35.506H96.8045V33.8932Z" fill="#4379F2"/>
<path d="M96.8045 30.6614H44.2079V32.2803H96.8045V30.6614Z" fill="#4379F2"/>
<path d="M95.7009 32.2804H45.3053V33.8932H95.7009V32.2804Z" fill="#EBEBEB"/>
<path d="M57.08 39.7188H49.2574V47.5109H57.08V39.7188Z" fill="#4379F2"/>
<path opacity="0.2" d="M57.08 39.7188H49.9472V47.5109H57.08V39.7188Z" fill="white"/>
<path d="M68.9256 39.7188H61.1031V47.5109H68.9256V39.7188Z" fill="#4379F2"/>
<path opacity="0.2" d="M68.9251 39.7188H61.7924V47.5109H68.9251V39.7188Z" fill="white"/>
<path d="M80.7708 39.7188H72.9482V47.5109H80.7708V39.7188Z" fill="#4379F2"/>
<path opacity="0.2" d="M80.7708 39.7188H73.638V47.5109H80.7708V39.7188Z" fill="white"/>
<path d="M57.08 51.1921H49.2574V58.9843H57.08V51.1921Z" fill="#4379F2"/>
<path opacity="0.2" d="M57.08 51.1921H49.9472V58.9843H57.08V51.1921Z" fill="white"/>
<path d="M68.9256 51.1921H61.1031V58.9843H68.9256V51.1921Z" fill="#4379F2"/>
<path opacity="0.2" d="M68.9251 51.1921H61.7924V58.9843H68.9251V51.1921Z" fill="white"/>
<path d="M80.7708 51.1921H72.9482V58.9843H80.7708V51.1921Z" fill="#4379F2"/>
<path opacity="0.2" d="M80.7708 51.1921H73.638V58.9843H80.7708V51.1921Z" fill="white"/>
<path d="M57.08 72.2046H49.2574V79.9967H57.08V72.2046Z" fill="#4379F2"/>
<path opacity="0.2" d="M57.08 72.2046H49.9472V79.9967H57.08V72.2046Z" fill="white"/>
<path d="M68.9256 72.2046H61.1031V79.9967H68.9256V72.2046Z" fill="#4379F2"/>
<path opacity="0.2" d="M68.9251 72.2046H61.7924V79.9967H68.9251V72.2046Z" fill="white"/>
<path d="M80.7708 72.2046H72.9482V79.9967H80.7708V72.2046Z" fill="#4379F2"/>
<path opacity="0.2" d="M80.7708 72.2046H73.638V79.9967H80.7708V72.2046Z" fill="white"/>
<path d="M57.08 83.678H49.2574V91.4701H57.08V83.678Z" fill="#4379F2"/>
<path opacity="0.2" d="M57.08 83.678H49.9472V91.4701H57.08V83.678Z" fill="white"/>
<path d="M68.9256 83.678H61.1031V91.4701H68.9256V83.678Z" fill="#4379F2"/>
<path opacity="0.2" d="M68.9251 83.678H61.7924V91.4701H68.9251V83.678Z" fill="white"/>
<path d="M80.7708 83.678H72.9482V91.4701H80.7708V83.678Z" fill="#4379F2"/>
<path opacity="0.2" d="M80.7708 83.678H73.638V91.4701H80.7708V83.678Z" fill="white"/>
<path d="M57.08 107.029H49.2574V114.821H57.08V107.029Z" fill="#4379F2"/>
<path opacity="0.2" d="M57.08 107.029H49.9472V114.821H57.08V107.029Z" fill="white"/>
<path d="M68.9256 107.029H61.1031V114.821H68.9256V107.029Z" fill="#4379F2"/>
<path opacity="0.2" d="M68.9251 107.029H61.7924V114.821H68.9251V107.029Z" fill="white"/>
<path d="M80.7708 107.029H72.9482V114.821H80.7708V107.029Z" fill="#4379F2"/>
<path opacity="0.2" d="M80.7708 107.029H73.638V114.821H80.7708V107.029Z" fill="white"/>
<path d="M57.08 118.502H49.2574V126.294H57.08V118.502Z" fill="#4379F2"/>
<path opacity="0.2" d="M57.08 118.502H49.9472V126.294H57.08V118.502Z" fill="white"/>
<path d="M68.9256 118.502H61.1031V126.294H68.9256V118.502Z" fill="#4379F2"/>
<path opacity="0.2" d="M68.9251 118.502H61.7924V126.294H68.9251V118.502Z" fill="white"/>
<path d="M80.7708 118.502H72.9482V126.294H80.7708V118.502Z" fill="#4379F2"/>
<path opacity="0.2" d="M80.7708 118.502H73.638V126.294H80.7708V118.502Z" fill="white"/>
<path opacity="0.2" d="M96.2057 64.4636H45.3037V65.1845H96.2057V64.4636Z" fill="white"/>
<path opacity="0.2" d="M96.2057 100.379H45.3037V101.1H96.2057V100.379Z" fill="white"/>
<path d="M166.293 47.5109H131.087V132.843H166.293V47.5109Z" fill="#4379F2"/>
<path opacity="0.4" d="M157.869 47.5109H131.087V132.843H157.869V47.5109Z" fill="white"/>
<path d="M143.052 54.5237H133.682V59.0549H143.052V54.5237Z" fill="#4379F2"/>
<path opacity="0.2" d="M143.052 54.5237H134.306V59.0549H143.052V54.5237Z" fill="white"/>
<path d="M153.89 54.5237H144.52V59.0549H153.89V54.5237Z" fill="#4379F2"/>
<path opacity="0.2" d="M153.89 54.5237H145.144V59.0549H153.89V54.5237Z" fill="white"/>
<path d="M143.052 63.0526H133.682V67.5838H143.052V63.0526Z" fill="#4379F2"/>
<path opacity="0.2" d="M143.052 63.0526H134.306V67.5838H143.052V63.0526Z" fill="white"/>
<path d="M153.89 63.0526H144.52V67.5838H153.89V63.0526Z" fill="#4379F2"/>
<path opacity="0.2" d="M153.89 63.0526H145.144V67.5838H153.89V63.0526Z" fill="white"/>
<path d="M143.052 73.9525H133.682V78.4837H143.052V73.9525Z" fill="#4379F2"/>
<path opacity="0.2" d="M143.052 73.9525H134.306V78.4837H143.052V73.9525Z" fill="white"/>
<path d="M153.89 73.9525H144.52V78.4837H153.89V73.9525Z" fill="#4379F2"/>
<path opacity="0.2" d="M153.89 73.9525H145.144V78.4837H153.89V73.9525Z" fill="white"/>
<path d="M143.052 80.2158H133.682V84.747H143.052V80.2158Z" fill="#4379F2"/>
<path opacity="0.2" d="M143.052 80.2158H134.306V84.747H143.052V80.2158Z" fill="white"/>
<path d="M153.89 80.2158H144.52V84.747H153.89V80.2158Z" fill="#4379F2"/>
<path opacity="0.2" d="M153.89 80.2158H145.144V84.747H153.89V80.2158Z" fill="white"/>
<path d="M143.052 90.505H133.682V95.0362H143.052V90.505Z" fill="#4379F2"/>
<path opacity="0.2" d="M143.052 90.505H134.306V95.0362H143.052V90.505Z" fill="white"/>
<path d="M153.89 90.505H144.52V95.0362H153.89V90.505Z" fill="#4379F2"/>
<path opacity="0.2" d="M153.89 90.505H145.144V95.0362H153.89V90.505Z" fill="white"/>
<path d="M143.052 96.7683H133.682V101.299H143.052V96.7683Z" fill="#4379F2"/>
<path opacity="0.2" d="M143.052 96.7683H134.306V101.299H143.052V96.7683Z" fill="white"/>
<path d="M153.89 96.7683H144.52V101.299H153.89V96.7683Z" fill="#4379F2"/>
<path opacity="0.2" d="M153.89 96.7683H145.144V101.299H153.89V96.7683Z" fill="white"/>
<path d="M143.052 107.966H133.682V112.497H143.052V107.966Z" fill="#4379F2"/>
<path opacity="0.2" d="M143.052 107.966H134.306V112.497H143.052V107.966Z" fill="white"/>
<path d="M153.89 107.966H144.52V112.497H153.89V107.966Z" fill="#4379F2"/>
<path opacity="0.2" d="M153.89 107.966H145.144V112.497H153.89V107.966Z" fill="white"/>
<path d="M143.052 116.237H133.682V120.768H143.052V116.237Z" fill="#4379F2"/>
<path opacity="0.2" d="M143.052 116.237H134.306V120.768H143.052V116.237Z" fill="white"/>
<path d="M153.89 116.237H144.52V120.768H153.89V116.237Z" fill="#4379F2"/>
<path opacity="0.2" d="M153.89 116.237H145.144V120.768H153.89V116.237Z" fill="white"/>
<path d="M166.292 44.9872H129.429V47.7131H166.292V44.9872Z" fill="#4379F2"/>
<path opacity="0.2" d="M166.293 44.9872H157.869V47.7131H166.293V44.9872Z" fill="#333333"/>
<path d="M131.087 85.1888H127.77V90.356H131.087V85.1888Z" fill="#E0E0E0"/>
<path d="M131.087 93.6451H127.77V98.8122H131.087V93.6451Z" fill="#E0E0E0"/>
<path d="M131.087 101.862H127.77V107.029H131.087V101.862Z" fill="#E0E0E0"/>
<path d="M131.087 110.552H127.77V115.719H131.087V110.552Z" fill="#E0E0E0"/>
<path d="M131.087 119.005H127.77V124.173H131.087V119.005Z" fill="#E0E0E0"/>
<path d="M131.087 79.9983H96.2041V132.844H131.087V79.9983Z" fill="#4379F2"/>
<path opacity="0.3" d="M125.194 79.9967H96.2057V132.843H125.194V79.9967Z" fill="white"/>
<path d="M122.387 85.192H98.8132V90.3581H122.387V85.192Z" fill="#4379F2"/>
<path d="M122.387 93.6451H98.8132V98.8112H122.387V93.6451Z" fill="#4379F2"/>
<path d="M122.387 102.099H98.8132V107.265H122.387V102.099Z" fill="#4379F2"/>
<path d="M122.387 110.552H98.8132V115.718H122.387V110.552Z" fill="#4379F2"/>
<path d="M122.387 119.006H98.8132V124.172H122.387V119.006Z" fill="#4379F2"/>
<g opacity="0.1">
<path d="M122.387 85.192H99.6824V90.3581H122.387V85.192Z" fill="white"/>
<path d="M122.387 93.6451H99.6824V98.8112H122.387V93.6451Z" fill="white"/>
<path d="M122.387 102.099H99.6824V107.265H122.387V102.099Z" fill="white"/>
<path d="M122.387 110.552H99.6824V115.718H122.387V110.552Z" fill="white"/>
<path d="M122.387 119.006H99.6824V124.172H122.387V119.006Z" fill="white"/>
</g>
<path d="M24.3927 96.2286H0.990265V132.843H38.3334V96.2286V79.9967L24.3927 96.2286Z" fill="#4379F2"/>
<path d="M45.3037 79.9967H38.3334V132.843H45.3037V79.9967Z" fill="#4379F2"/>
<path opacity="0.7" d="M45.3037 79.9967H38.3334V132.843H45.3037V79.9967Z" fill="white"/>
<path opacity="0.7" d="M96.2057 35.5085H86.9506V132.844H96.2057V35.5085Z" fill="white"/>
<path opacity="0.6" d="M131.087 79.9967H125.194V132.844H131.087V79.9967Z" fill="white"/>
<path opacity="0.7" d="M166.293 47.7125H157.869V132.844H166.293V47.7125Z" fill="white"/>
<path opacity="0.5" d="M171.224 33.0863H169.9V38.5376H171.224V33.0863Z" fill="white"/>
<path opacity="0.5" d="M171.224 42.2612H169.9V47.7125H171.224V42.2612Z" fill="white"/>
<path opacity="0.5" d="M171.224 51.7983H169.9V57.2496H171.224V51.7983Z" fill="white"/>
<path opacity="0.5" d="M171.224 61.3353H169.9V66.7866H171.224V61.3353Z" fill="white"/>
<path opacity="0.5" d="M171.224 70.8718H169.9V76.3231H171.224V70.8718Z" fill="white"/>
<path opacity="0.5" d="M171.224 80.4088H169.9V85.8601H171.224V80.4088Z" fill="white"/>
<path opacity="0.5" d="M171.224 90.9192H169.9V96.3705H171.224V90.9192Z" fill="white"/>
<path opacity="0.5" d="M171.224 101.43H169.9V106.881H171.224V101.43Z" fill="white"/>
<path opacity="0.5" d="M171.224 111.94H169.9V117.391H171.224V111.94Z" fill="white"/>
<path opacity="0.5" d="M171.224 122.451H169.9V127.902H171.224V122.451Z" fill="white"/>
<path d="M222.938 25.8204H181.596V132.844H222.938V25.8204Z" fill="#4379F2"/>
<path d="M207.636 25.8195H166.293V132.844H207.636V25.8195Z" fill="#4379F2"/>
<path opacity="0.7" d="M222.937 27.3544H207.635V132.844H222.937V27.3544Z" fill="white"/>
<path d="M222.937 33.0842H211.418V38.538H222.937V33.0842Z" fill="#4379F2"/>
<path d="M222.937 42.0575H211.418V47.5113H222.937V42.0575Z" fill="#4379F2"/>
<path d="M222.937 51.0304H211.418V56.4842H222.937V51.0304Z" fill="#4379F2"/>
<path d="M222.937 61.3339H211.418V66.7877H222.937V61.3339Z" fill="#4379F2"/>
<path d="M222.937 70.8708H211.418V76.3247H222.937V70.8708Z" fill="#4379F2"/>
<path d="M222.937 80.4078H211.418V85.8617H222.937V80.4078Z" fill="#4379F2"/>
<path d="M222.937 90.9182H211.418V96.372H222.937V90.9182Z" fill="#4379F2"/>
<path d="M222.937 101.429H211.418V106.882H222.937V101.429Z" fill="#4379F2"/>
<path d="M222.937 111.939H211.418V117.393H222.937V111.939Z" fill="#4379F2"/>
<path d="M222.937 122.449H211.418V127.903H222.937V122.449Z" fill="#4379F2"/>
<path opacity="0.3" d="M222.937 33.0842H211.418V38.538H222.937V33.0842Z" fill="white"/>
<path opacity="0.3" d="M222.937 42.0575H211.418V47.5113H222.937V42.0575Z" fill="white"/>
<path opacity="0.3" d="M222.937 51.0304H211.418V56.4842H222.937V51.0304Z" fill="white"/>
<path opacity="0.3" d="M222.937 61.3339H211.418V66.7877H222.937V61.3339Z" fill="white"/>
<path opacity="0.3" d="M222.937 70.8708H211.418V76.3247H222.937V70.8708Z" fill="white"/>
<path opacity="0.3" d="M222.937 80.4078H211.418V85.8617H222.937V80.4078Z" fill="white"/>
<path opacity="0.3" d="M222.937 90.9182H211.418V96.372H222.937V90.9182Z" fill="white"/>
<path opacity="0.3" d="M222.937 101.429H211.418V106.882H222.937V101.429Z" fill="white"/>
<path opacity="0.3" d="M222.937 111.939H211.418V117.393H222.937V111.939Z" fill="white"/>
<path opacity="0.3" d="M222.937 122.449H211.418V127.903H222.937V122.449Z" fill="white"/>
<path opacity="0.4" d="M207.636 25.8195H166.293V132.844H207.636V25.8195Z" fill="white"/>
<path d="M204.028 33.0863H169.9V38.5376H204.028V33.0863Z" fill="#4379F2"/>
<path opacity="0.2" d="M204.027 33.0863H171.224V38.5376H204.027V33.0863Z" fill="white"/>
<path d="M204.028 42.2614H169.9V47.7126H204.028V42.2614Z" fill="#4379F2"/>
<path opacity="0.2" d="M204.027 42.2614H171.224V47.7126H204.027V42.2614Z" fill="white"/>
<path d="M204.028 51.7983H169.9V57.2496H204.028V51.7983Z" fill="#4379F2"/>
<path opacity="0.2" d="M204.027 51.7983H171.224V57.2496H204.027V51.7983Z" fill="white"/>
<path d="M204.028 61.3353H169.9V66.7866H204.028V61.3353Z" fill="#4379F2"/>
<path opacity="0.2" d="M204.027 61.3353H171.224V66.7866H204.027V61.3353Z" fill="white"/>
<path d="M204.028 70.8718H169.9V76.3231H204.028V70.8718Z" fill="#4379F2"/>
<path opacity="0.2" d="M204.027 70.8718H171.224V76.3231H204.027V70.8718Z" fill="white"/>
<path d="M204.028 80.4088H169.9V85.8601H204.028V80.4088Z" fill="#4379F2"/>
<path opacity="0.2" d="M204.027 80.4088H171.224V85.8601H204.027V80.4088Z" fill="white"/>
<path d="M204.028 90.9192H169.9V96.3705H204.028V90.9192Z" fill="#4379F2"/>
<path opacity="0.2" d="M204.027 90.9192H171.224V96.3705H204.027V90.9192Z" fill="white"/>
<path d="M204.028 101.43H169.9V106.881H204.028V101.43Z" fill="#4379F2"/>
<path opacity="0.2" d="M204.027 101.43H171.224V106.881H204.027V101.43Z" fill="white"/>
<path d="M204.028 111.94H169.9V117.391H204.028V111.94Z" fill="#4379F2"/>
<path opacity="0.2" d="M204.027 111.94H171.224V117.391H204.027V111.94Z" fill="white"/>
<path d="M204.028 122.451H169.9V127.902H204.028V122.451Z" fill="#4379F2"/>
<path opacity="0.2" d="M204.027 122.451H171.224V127.902H204.027V122.451Z" fill="white"/>
<path d="M222.054 22.6425H207.635V24.7427H222.054V22.6425Z" fill="#4379F2"/>
<path d="M222.054 22.131H166.293V24.7427H222.054V22.131Z" fill="#EBEBEB"/>
<path d="M224.01 24.7427H165.123V27.3544H224.01V24.7427Z" fill="#4379F2"/>
<path d="M224.01 20.0308H165.123V22.6425H224.01V20.0308Z" fill="#4379F2"/>
<path opacity="0.05" d="M224.01 24.7427H165.123V27.3544H224.01V24.7427Z" fill="#333333"/>
<path opacity="0.05" d="M224.01 20.0308H165.123V22.6425H224.01V20.0308Z" fill="#333333"/>
<path opacity="0.2" d="M166.293 70.2523H131.087V71.0321H166.293V70.2523Z" fill="white"/>
<path opacity="0.2" d="M166.293 87.11H131.087V87.8898H166.293V87.11Z" fill="white"/>
<path opacity="0.2" d="M166.293 104.117H131.087V104.896H166.293V104.117Z" fill="white"/>
<path opacity="0.2" d="M96.8045 33.8932H86.9506V35.5085H96.8045V33.8932Z" fill="#333333"/>
<path opacity="0.2" d="M96.8045 30.663H86.9506V32.2783H96.8045V30.663Z" fill="#333333"/>
<path opacity="0.2" d="M224.01 24.7427H207.635V27.3544H224.01V24.7427Z" fill="#333333"/>
<path opacity="0.2" d="M224.01 20.0308H207.635V22.6425H224.01V20.0308Z" fill="#333333"/>
<path opacity="0.4" d="M24.3927 96.2286H0.990265V132.843H38.3334V96.2286V79.9967L24.3927 96.2286Z" fill="white"/>
<path d="M9.93437 103.652H4.37752V109.188H9.93437V103.652Z" fill="#4379F2"/>
<path d="M21.2413 103.652H15.684V109.188H21.2413V103.652Z" fill="#4379F2"/>
<path d="M32.5473 103.652H26.9904V109.188H32.5473V103.652Z" fill="#4379F2"/>
<path d="M9.93437 112.967H4.37752V118.503H9.93437V112.967Z" fill="#4379F2"/>
<path d="M21.2413 112.967H15.684V118.503H21.2413V112.967Z" fill="#4379F2"/>
<path d="M32.5473 112.967H26.9904V118.503H32.5473V112.967Z" fill="#4379F2"/>
<path d="M9.93437 122.281H4.37752V127.816H9.93437V122.281Z" fill="#4379F2"/>
<path d="M21.2413 122.281H15.684V127.816H21.2413V122.281Z" fill="#4379F2"/>
<path d="M32.5473 122.281H26.9904V127.816H32.5473V122.281Z" fill="#4379F2"/>
<path opacity="0.2" d="M10.5476 103.652H4.9902V109.188H10.5476V103.652Z" fill="white"/>
<path opacity="0.2" d="M21.8535 103.652H16.2967V109.188H21.8535V103.652Z" fill="white"/>
<path opacity="0.2" d="M33.1605 103.652H27.6031V109.188H33.1605V103.652Z" fill="white"/>
<path opacity="0.2" d="M10.5476 112.967H4.9902V118.503H10.5476V112.967Z" fill="white"/>
<path opacity="0.2" d="M21.8535 112.967H16.2967V118.503H21.8535V112.967Z" fill="white"/>
<path opacity="0.2" d="M33.1605 112.967H27.6031V118.503H33.1605V112.967Z" fill="white"/>
<path opacity="0.2" d="M10.5476 122.281H4.9902V127.816H10.5476V122.281Z" fill="white"/>
<path opacity="0.2" d="M21.8535 122.281H16.2967V127.816H21.8535V122.281Z" fill="white"/>
<path opacity="0.2" d="M33.1605 122.281H27.6031V127.816H33.1605V122.281Z" fill="white"/>
</svg>
