<svg width="155" height="161" viewBox="0 0 155 161" fill="none" xmlns="http://www.w3.org/2000/svg">
<path d="M128.956 105.527H97.1931L81.3347 124.633C78.9354 127.524 74.4607 127.449 72.1603 124.48L57.4782 105.527H26.0439C11.9384 105.527 0.503662 94.144 0.503662 80.1029V26.6344C0.503662 12.5933 11.9384 1.21069 26.0439 1.21069H128.956C143.062 1.21069 154.496 12.5933 154.496 26.6344V80.1029C154.496 94.144 143.062 105.527 128.956 105.527Z" fill="#4379F2"/>
<path opacity="0.16" d="M80.104 159.79C102.034 159.79 119.811 157.31 119.811 154.251C119.811 151.192 102.034 148.712 80.104 148.712C58.1744 148.712 40.397 151.192 40.397 154.251C40.397 157.31 58.1744 159.79 80.104 159.79Z" fill="#4379F2"/>
<path d="M91.7887 52.3221C99.6808 44.466 99.6808 31.7286 91.7887 23.8724C83.8965 16.0163 71.1008 16.0163 63.2087 23.8724C55.3165 31.7286 55.3166 44.466 63.2087 52.3221C71.1008 60.1783 83.8965 60.1783 91.7887 52.3221Z" fill="white"/>
<path d="M112.227 82.576C110.266 70.0301 99.366 60.4286 86.2126 60.4286H68.7873C55.634 60.4286 44.7343 70.03 42.7732 82.576H112.227Z" fill="white"/>
</svg>
