<svg width="24" height="24" viewBox="0 0 24 24" fill="none" xmlns="http://www.w3.org/2000/svg">
<path fill-rule="evenodd" clip-rule="evenodd" d="M11.753 20.969C10.6029 19.9254 9.53846 18.7911 8.57 17.577C6.53 15.014 5.289 12.487 5.205 10.24C5.17176 9.32679 5.32292 8.41626 5.64946 7.56278C5.97599 6.7093 6.4712 5.9304 7.1055 5.27259C7.7398 4.61478 8.50018 4.09157 9.34122 3.7342C10.1823 3.37684 11.0867 3.19265 12.0005 3.19265C12.9143 3.19265 13.8187 3.37684 14.6598 3.7342C15.5008 4.09157 16.2612 4.61478 16.8955 5.27259C17.5298 5.9304 18.025 6.7093 18.3515 7.56278C18.6781 8.41626 18.8292 9.32679 18.796 10.24C18.711 12.487 17.469 15.014 15.43 17.577C14.4615 18.7911 13.3971 19.9254 12.247 20.969C12.1363 21.069 12.054 21.1417 12 21.187L11.753 20.969ZM12.738 22.134C12.738 22.134 20 16.018 20 10C20 7.87827 19.1571 5.84344 17.6569 4.34315C16.1566 2.84285 14.1217 2 12 2C9.87827 2 7.84344 2.84285 6.34314 4.34315C4.84285 5.84344 4 7.87827 4 10C4 16.018 11.262 22.134 11.262 22.134C11.666 22.506 12.331 22.502 12.738 22.134ZM12 12.8C11.2574 12.8 10.5452 12.505 10.0201 11.9799C9.495 11.4548 9.2 10.7426 9.2 10C9.2 9.25739 9.495 8.5452 10.0201 8.0201C10.5452 7.495 11.2574 7.2 12 7.2C12.7426 7.2 13.4548 7.495 13.9799 8.0201C14.505 8.5452 14.8 9.25739 14.8 10C14.8 10.7426 14.505 11.4548 13.9799 11.9799C13.4548 12.505 12.7426 12.8 12 12.8ZM12 14C13.0609 14 14.0783 13.5786 14.8284 12.8284C15.5786 12.0783 16 11.0609 16 10C16 8.93913 15.5786 7.92172 14.8284 7.17157C14.0783 6.42143 13.0609 6 12 6C10.9391 6 9.92172 6.42143 9.17157 7.17157C8.42143 7.92172 8 8.93913 8 10C8 11.0609 8.42143 12.0783 9.17157 12.8284C9.92172 13.5786 10.9391 14 12 14Z" fill="#333333"/>
</svg>
