<svg width="24" height="24" viewBox="0 0 24 24" fill="none" xmlns="http://www.w3.org/2000/svg">
<path fill-rule="evenodd" clip-rule="evenodd" d="M3.48998 6.237C3.57009 5.55231 3.89874 4.92084 4.41357 4.46241C4.92841 4.00398 5.59362 3.75047 6.28298 3.75H17.025C17.2071 3.74985 17.383 3.81596 17.52 3.936L20.28 6.36C20.901 6.905 21.244 7.7 21.214 8.525L20.87 18.099C20.8443 18.8107 20.5436 19.4847 20.0311 19.9792C19.5185 20.4736 18.8341 20.7499 18.122 20.75H6.11298C5.47012 20.7505 4.84917 20.5164 4.36661 20.0917C3.88406 19.6669 3.57307 19.0807 3.49198 18.443C2.99477 14.5648 2.97328 10.6404 3.42798 6.757L3.48998 6.237ZM6.28398 5.25C5.61698 5.25 5.05598 5.75 4.97898 6.411L4.91898 6.931C4.47873 10.6934 4.49887 14.4955 4.97898 18.253C5.05298 18.823 5.53898 19.25 6.11298 19.25H6.74998V15C6.74998 14.034 7.53398 13.25 8.49998 13.25H15.5C16.466 13.25 17.25 14.034 17.25 15V19.25H18.123C18.4468 19.2502 18.7582 19.1247 18.9913 18.8999C19.2245 18.6752 19.3613 18.3687 19.373 18.045L19.716 8.472C19.7228 8.28664 19.6883 8.10209 19.615 7.93172C19.5416 7.76135 19.4313 7.60944 19.292 7.487L16.75 5.255V7.6C16.75 8.06413 16.5656 8.50925 16.2374 8.83744C15.9092 9.16563 15.4641 9.35 15 9.35H8.99998C8.53585 9.35 8.09073 9.16563 7.76254 8.83744C7.43435 8.50925 7.24998 8.06413 7.24998 7.6V5.25H6.28398ZM8.74998 5.25V7.6C8.74998 7.738 8.86198 7.85 8.99998 7.85H15C15.0663 7.85 15.1299 7.82366 15.1768 7.77678C15.2236 7.72989 15.25 7.6663 15.25 7.6V5.25H8.74998ZM15.75 19.25H8.24998V15C8.24998 14.9337 8.27632 14.8701 8.3232 14.8232C8.37009 14.7763 8.43367 14.75 8.49998 14.75H15.5C15.5663 14.75 15.6299 14.7763 15.6768 14.8232C15.7236 14.8701 15.75 14.9337 15.75 15V19.25Z" fill="#333333"/>
</svg>
