<svg width="25" height="24" viewBox="0 0 25 24" fill="none" xmlns="http://www.w3.org/2000/svg">
<path d="M12.4239 3.25C12.3212 3.24988 12.2195 3.27085 12.1253 3.31162C12.031 3.35239 11.9461 3.41208 11.8759 3.487L7.26588 8.094C7.12519 8.2347 7.04614 8.42553 7.04614 8.6245C7.04614 8.82348 7.12519 9.0143 7.26588 9.155C7.40658 9.2957 7.59741 9.37474 7.79638 9.37474C7.99536 9.37474 8.18619 9.2957 8.32688 9.155L11.6739 5.81V16C11.6739 16.0985 11.6933 16.196 11.731 16.287C11.7687 16.378 11.8239 16.4607 11.8936 16.5303C11.9632 16.6 12.0459 16.6552 12.1369 16.6929C12.2279 16.7306 12.3254 16.75 12.4239 16.75C12.5224 16.75 12.6199 16.7306 12.7109 16.6929C12.8019 16.6552 12.8846 16.6 12.9542 16.5303C13.0239 16.4607 13.0791 16.378 13.1168 16.287C13.1545 16.196 13.1739 16.0985 13.1739 16V5.815L16.5169 9.155C16.5855 9.22869 16.6683 9.28779 16.7603 9.32878C16.8523 9.36977 16.9517 9.39182 17.0524 9.39359C17.1531 9.39537 17.2531 9.37684 17.3465 9.33912C17.4399 9.3014 17.5247 9.24526 17.5959 9.17404C17.6671 9.10282 17.7233 9.01799 17.761 8.9246C17.7987 8.83121 17.8173 8.73118 17.8155 8.63048C17.8137 8.52978 17.7917 8.43046 17.7507 8.33846C17.7097 8.24646 17.6506 8.16366 17.5769 8.095L13.0019 3.522C12.9315 3.43691 12.8432 3.36841 12.7433 3.32139C12.6434 3.27437 12.5343 3.24999 12.4239 3.25Z" fill="#333333"/>
<path d="M5.17212 16C5.17212 15.8011 5.0931 15.6103 4.95245 15.4697C4.8118 15.329 4.62103 15.25 4.42212 15.25C4.22321 15.25 4.03244 15.329 3.89179 15.4697C3.75114 15.6103 3.67212 15.8011 3.67212 16V18.5C3.67212 19.0967 3.90917 19.669 4.33113 20.091C4.75309 20.5129 5.32538 20.75 5.92212 20.75H18.9221C19.5189 20.75 20.0912 20.5129 20.5131 20.091C20.9351 19.669 21.1721 19.0967 21.1721 18.5V16C21.1721 15.8011 21.0931 15.6103 20.9524 15.4697C20.8118 15.329 20.621 15.25 20.4221 15.25C20.2232 15.25 20.0324 15.329 19.8918 15.4697C19.7511 15.6103 19.6721 15.8011 19.6721 16V18.5C19.6721 18.6989 19.5931 18.8897 19.4524 19.0303C19.3118 19.171 19.121 19.25 18.9221 19.25H5.92212C5.72321 19.25 5.53244 19.171 5.39179 19.0303C5.25114 18.8897 5.17212 18.6989 5.17212 18.5V16Z" fill="#333333"/>
</svg>
